<svg xmlns="http://www.w3.org/2000/svg" xmlns:xlink="http://www.w3.org/1999/xlink" width="468.9" height="245.7" viewBox="182.5 -396.7 468.9 245.7"><title>Part 2</title><style type="text/css">
path, polyline, polygon {stroke-linejoin:round;}
rect, circle, ellipse, polyline, line, polygon, path {shape-rendering:crispEdges;}
</style>
<rect x="182.5" y="-396.7" width="468.9" height="245.7" fill="#FFFFFF" stroke="none"/><g xmlns="http://www.w3.org/2000/svg" id="g1" c_spiceCmd="null" c_para="Prefix Start`1`" importFlag="0" c_portOfADImportHack="" c_transformList=""><g c_partid="part_netLabel_netPort" c_etype="pinpart" c_origin="590,-280" id="gge29389" locked="0" c_shapetype="group" c_rotation="180"><circle c_pindot="true" class="pindot" cx="590" cy="-280" r="2" fill="none" stroke="none" /><g c_partid="part_annotation" id="flag_gge241" c_shapetype="group" ><text x="611.67" y="-277.41" font-family="Times New Roman" font-size="8pt" fill="#0000FF" text-anchor="start" c_note="note_netflag" >Output</text></g><polyline points="590 -280 595 -285 610 -285 610 -275 595 -275 590 -280" stroke="#0000FF" id="gge29401" locked="0" stroke-width="1"   fill="transparent" stroke-linecap="round" /></g><g c_partid="part_netLabel_netPort" c_etype="pinpart" c_origin="225,-265" id="gge29404" locked="0" c_shapetype="group" c_rotation="0"><circle c_pindot="true" class="pindot" cx="225" cy="-265" r="2" fill="none" stroke="none" /><g c_partid="part_annotation" id="flag_gge244" c_shapetype="group" ><text x="203" y="-261.54" font-family="Times New Roman" font-size="8pt" fill="#0000FF" text-anchor="end" c_note="note_netflag" >b</text></g><polyline points="225 -265 220 -260 205 -260 205 -270 220 -270 225 -265" stroke="#0000FF" id="gge29416" locked="0" stroke-width="1"   fill="transparent" stroke-linecap="round" /></g><g c_partid="part_netLabel_netPort" c_etype="pinpart" c_origin="225,-297" id="gge29419" locked="0" c_shapetype="group" c_rotation="0"><circle c_pindot="true" class="pindot" cx="225" cy="-297" r="2" fill="none" stroke="none" /><g c_partid="part_annotation" id="flag_gge247" c_shapetype="group" ><text x="203" y="-294.04" font-family="Times New Roman" font-size="8pt" fill="#0000FF" text-anchor="end" c_note="note_netflag" >a</text></g><polyline points="225 -297.5 220 -292.5 205 -292.5 205 -302.5 220 -302.5 225 -297.5" stroke="#0000FF" id="gge29431" locked="0" stroke-width="1"   fill="transparent" stroke-linecap="round" /></g><polyline c_etype="wire" c_shapetype="line" points="520 -235 520 -220 520 -170" stroke="#0000FF" id="gge29434" locked="0" stroke-width="1"   fill="none" stroke-linecap="round" /><polyline c_etype="wire" c_shapetype="line" points="370 -235 370 -170" stroke="#0000FF" id="gge29437" locked="0" stroke-width="1"   fill="none" stroke-linecap="round" /><polyline c_etype="wire" c_shapetype="line" points="460 -315 460 -380" stroke="#FF0000" id="gge29440" locked="0" stroke-width="1"   fill="none" stroke-linecap="round" /><polyline c_etype="wire" c_shapetype="line" points="310 -315 310 -380" stroke="#FF0000" id="gge29443" locked="0" stroke-width="1"   fill="none" stroke-linecap="round" /><g c_partid="part_netLabel_+5V" c_etype="pinpart" c_origin="235,-185" id="gge29446" locked="0" c_shapetype="group" c_rotation="90"><circle c_pindot="true" class="pindot" cx="235" cy="-185" r="2" fill="none" stroke="none" /><g c_partid="part_annotation" id="flag_gge250" c_shapetype="group" ><text x="202.90625" y="-180.9609375" font-family="Times New Roman" font-size="9pt" fill="#000000" text-anchor="start" c_note="note_netflag" >+5V</text></g><polyline points="225 -185 235 -185" stroke="#000000" id="gge29458" locked="0" stroke-width="1"   fill="transparent" stroke-linecap="round" /><polyline points="225 -180 225 -190" stroke="#000000" id="gge29461" locked="0" stroke-width="1"   fill="transparent" stroke-linecap="round" /></g><g c_partid="part_netLabel_gnD" c_etype="pinpart" c_origin="235,-170" id="gge29464" locked="0" c_shapetype="group" c_rotation="270"><circle c_pindot="true" class="pindot" cx="235" cy="-170" r="2" fill="none" stroke="none" /><g c_partid="part_annotation" id="flag_gge253" c_shapetype="group" ><text x="192.5234375" y="-165.96875" font-family="Times New Roman" font-size="9pt" fill="#000000" text-anchor="start" c_note="note_netflag" >GND</text></g><polyline points="225 -170 235 -170" stroke="#000000" id="gge29476" locked="0" stroke-width="1"   fill="transparent" stroke-linecap="round" /><polyline points="225 -179 225 -161" stroke="#000000" id="gge29479" locked="0" stroke-width="1"   fill="transparent" stroke-linecap="round" /><polyline points="223 -176 223 -164" stroke="#000000" id="gge29482" locked="0" stroke-width="1"   fill="transparent" stroke-linecap="round" /><polyline points="221 -173 221 -167" stroke="#000000" id="gge29485" locked="0" stroke-width="1"   fill="transparent" stroke-linecap="round" /><polyline points="219 -171 219 -169" stroke="#000000" id="gge29488" locked="0" stroke-width="1"   fill="transparent" stroke-linecap="round" /></g><polyline c_etype="wire" c_shapetype="line" points="235 -185 630 -185" stroke="#FF0000" id="gge29491" locked="0" stroke-width="1"   fill="none" stroke-linecap="round" /><polyline c_etype="wire" c_shapetype="line" points="235 -170 630 -170" stroke="#0000FF" id="gge29494" locked="0" stroke-width="1"   fill="none" stroke-linecap="round" /><polyline c_etype="wire" c_shapetype="line" points="235 -365 630 -365" stroke="#0000FF" id="gge29497" locked="0" stroke-width="1"   fill="none" stroke-linecap="round" /><polyline c_etype="wire" c_shapetype="line" points="235 -380 630 -380" stroke="#FF0000" id="gge29500" locked="0" stroke-width="1"   fill="none" stroke-linecap="round" /><g c_partid="part_netLabel_gnD" c_etype="pinpart" c_origin="235,-365" id="gge29503" locked="0" c_shapetype="group" c_rotation="270"><circle c_pindot="true" class="pindot" cx="235" cy="-365" r="2" fill="none" stroke="none" /><g c_partid="part_annotation" id="flag_gge256" c_shapetype="group" ><text x="192.5234375" y="-360.96875" font-family="Times New Roman" font-size="9pt" fill="#000000" text-anchor="start" c_note="note_netflag" >GND</text></g><polyline points="225 -365 235 -365" stroke="#000000" id="gge29515" locked="0" stroke-width="1"   fill="transparent" stroke-linecap="round" /><polyline points="225 -374 225 -356" stroke="#000000" id="gge29518" locked="0" stroke-width="1"   fill="transparent" stroke-linecap="round" /><polyline points="223 -371 223 -359" stroke="#000000" id="gge29521" locked="0" stroke-width="1"   fill="transparent" stroke-linecap="round" /><polyline points="221 -368 221 -362" stroke="#000000" id="gge29524" locked="0" stroke-width="1"   fill="transparent" stroke-linecap="round" /><polyline points="219 -366 219 -364" stroke="#000000" id="gge29527" locked="0" stroke-width="1"   fill="transparent" stroke-linecap="round" /></g><g c_partid="part_netLabel_+5V" c_etype="pinpart" c_origin="235,-380" id="gge29530" locked="0" c_shapetype="group" c_rotation="90"><circle c_pindot="true" class="pindot" cx="235" cy="-380" r="2" fill="none" stroke="none" /><g c_partid="part_annotation" id="flag_gge259" c_shapetype="group" ><text x="202.90625" y="-375.9609375" font-family="Times New Roman" font-size="9pt" fill="#000000" text-anchor="start" c_note="note_netflag" >+5V</text></g><polyline points="225 -380 235 -380" stroke="#000000" id="gge29542" locked="0" stroke-width="1"   fill="transparent" stroke-linecap="round" /><polyline points="225 -375 225 -385" stroke="#000000" id="gge29545" locked="0" stroke-width="1"   fill="transparent" stroke-linecap="round" /></g><g c_origin="490,-275" c_para="package`DIP-14_L19.0-W7.0-P2.54-LS7.6-BL`spicePre`X`BOM_Supplier`LCSC`BOM_Manufacturer`TI(&#x5fb7;&#x5dde;&#x4eea;&#x5668;)`BOM_Manufacturer Part`SN74HC32N`BOM_Supplier Part`C2894`BOM_JLCPCB Part Class`Extended Part`spiceSymbolName`SN74HC32N`" c_partid="part_lib_ggee25d4a37aa546cf4" id="ggee25d4a37aa546cf4" locked="0" c_shapetype="group" c_etype="pinpart" puuid="19fa0947dffe40d99f0df98a0b4de659" uuid="b98d8e481d835f0e8f56eb3e0ccb6b3a" convert_to_pcb="yes" datastrid="afd7a969bf1347b1a2f697bc6eddf966" pdatastrid="6f66ab8a68f047849aed13583932a7f8" utime="1673248511" add_into_bom="yes" c_rotation="90"><g c_partid="part_annotation" id="gge29554"   c_shapetype="group"><text c_note="note_name" x="532.8984375" y="-266.984375" fill="#000080" font-family="Arial" font-size="7pt" font-weight="" font-style="" dominant-baseline="" text-anchor="start"  >74HC08</text></g><g c_partid="part_annotation" id="gge33196" display="none"  c_shapetype="group"><text c_note="note_pre" x="534.01" y="-272.13" fill="#000080" font-family="Arial" font-size="7pt" font-weight="" font-style="" dominant-baseline="" text-anchor="start"  >U14</text></g><ellipse cx="453" cy="-250" rx="1.5" ry="1.5" id="gge29566" locked="0" stroke="#880000" stroke-width="1" fill="#880000"   /><rect id="gge29569" locked="0" c_etype="" x="448" y="-305" rx="2" ry="2" width="84" height="60" stroke="#880000" stroke-width="1" fill="none"   /><ellipse cx="453" cy="-250" rx="1.5" ry="1.5" id="gge29572" locked="0" stroke="#880000" stroke-width="1" fill="#880000"   /><g c_partid="part_pin" c_etype="pinpart"  c_show="show"  c_elec="0" c_spicepin="1" c_origin="460,-235" id="gge29575" locked="0" c_rotation="270"><text x="464" y="-248.7" font-family="Verdana" font-size="7pt" fill="#0000FF" text-anchor="start" c_pinname="1A"  transform="rotate(270,464,-248.7)" >1A</text><text x="459" y="-244.5" font-family="Verdana" font-size="7pt" fill="#0000FF" text-anchor="end" c_pinnumber="1"  transform="rotate(270,459,-244.5)" >1</text><circle c_pindot="true" class="pindot" cx="460" cy="-235" r="2" fill="none" stroke="none" /><path d="M 460 -235 v -10" fill="none" stroke="#880000" stroke-width="1"/><circle cx="460" cy="-242" r="3" stroke="#880000" fill="none" stroke-width="1" display="none" /><path d="M 463 -245 L 460 -248 L 457 -245" fill="none" stroke="#880000" stroke-width="1"  display="none" /></g><g c_partid="part_pin" c_etype="pinpart"  c_show="show"  c_elec="0" c_spicepin="2" c_origin="470,-235" id="gge29596" locked="0" c_rotation="270"><text x="474" y="-248.7" font-family="Verdana" font-size="7pt" fill="#0000FF" text-anchor="start" c_pinname="1B"  transform="rotate(270,474,-248.7)" >1B</text><text x="469" y="-244.5" font-family="Verdana" font-size="7pt" fill="#0000FF" text-anchor="end" c_pinnumber="2"  transform="rotate(270,469,-244.5)" >2</text><circle c_pindot="true" class="pindot" cx="470" cy="-235" r="2" fill="none" stroke="none" /><path d="M 470 -235 v -10" fill="none" stroke="#880000" stroke-width="1"/><circle cx="470" cy="-242" r="3" stroke="#880000" fill="none" stroke-width="1" display="none" /><path d="M 473 -245 L 470 -248 L 467 -245" fill="none" stroke="#880000" stroke-width="1"  display="none" /></g><g c_partid="part_pin" c_etype="pinpart"  c_show="show"  c_elec="0" c_spicepin="3" c_origin="480,-235" id="gge29617" locked="0" c_rotation="270"><text x="484" y="-248.7" font-family="Verdana" font-size="7pt" fill="#0000FF" text-anchor="start" c_pinname="1Y"  transform="rotate(270,484,-248.7)" >1Y</text><text x="479" y="-244.5" font-family="Verdana" font-size="7pt" fill="#0000FF" text-anchor="end" c_pinnumber="3"  transform="rotate(270,479,-244.5)" >3</text><circle c_pindot="true" class="pindot" cx="480" cy="-235" r="2" fill="none" stroke="none" /><path d="M 480 -235 v -10" fill="none" stroke="#880000" stroke-width="1"/><circle cx="480" cy="-242" r="3" stroke="#880000" fill="none" stroke-width="1" display="none" /><path d="M 483 -245 L 480 -248 L 477 -245" fill="none" stroke="#880000" stroke-width="1"  display="none" /></g><g c_partid="part_pin" c_etype="pinpart"  c_show="show"  c_elec="0" c_spicepin="4" c_origin="490,-235" id="gge29638" locked="0" c_rotation="270"><text x="494" y="-248.7" font-family="Verdana" font-size="7pt" fill="#0000FF" text-anchor="start" c_pinname="2A"  transform="rotate(270,494,-248.7)" >2A</text><text x="489" y="-244.5" font-family="Verdana" font-size="7pt" fill="#0000FF" text-anchor="end" c_pinnumber="4"  transform="rotate(270,489,-244.5)" >4</text><circle c_pindot="true" class="pindot" cx="490" cy="-235" r="2" fill="none" stroke="none" /><path d="M 490 -235 v -10" fill="none" stroke="#880000" stroke-width="1"/><circle cx="490" cy="-242" r="3" stroke="#880000" fill="none" stroke-width="1" display="none" /><path d="M 493 -245 L 490 -248 L 487 -245" fill="none" stroke="#880000" stroke-width="1"  display="none" /></g><g c_partid="part_pin" c_etype="pinpart"  c_show="show"  c_elec="0" c_spicepin="5" c_origin="500,-235" id="gge29659" locked="0" c_rotation="270"><text x="504" y="-248.7" font-family="Verdana" font-size="7pt" fill="#0000FF" text-anchor="start" c_pinname="2B"  transform="rotate(270,504,-248.7)" >2B</text><text x="499" y="-244.5" font-family="Verdana" font-size="7pt" fill="#0000FF" text-anchor="end" c_pinnumber="5"  transform="rotate(270,499,-244.5)" >5</text><circle c_pindot="true" class="pindot" cx="500" cy="-235" r="2" fill="none" stroke="none" /><path d="M 500 -235 v -10" fill="none" stroke="#880000" stroke-width="1"/><circle cx="500" cy="-242" r="3" stroke="#880000" fill="none" stroke-width="1" display="none" /><path d="M 503 -245 L 500 -248 L 497 -245" fill="none" stroke="#880000" stroke-width="1"  display="none" /></g><g c_partid="part_pin" c_etype="pinpart"  c_show="show"  c_elec="0" c_spicepin="6" c_origin="510,-235" id="gge29680" locked="0" c_rotation="270"><text x="514" y="-248.7" font-family="Verdana" font-size="7pt" fill="#0000FF" text-anchor="start" c_pinname="2Y"  transform="rotate(270,514,-248.7)" >2Y</text><text x="509" y="-244.5" font-family="Verdana" font-size="7pt" fill="#0000FF" text-anchor="end" c_pinnumber="6"  transform="rotate(270,509,-244.5)" >6</text><circle c_pindot="true" class="pindot" cx="510" cy="-235" r="2" fill="none" stroke="none" /><path d="M 510 -235 v -10" fill="none" stroke="#880000" stroke-width="1"/><circle cx="510" cy="-242" r="3" stroke="#880000" fill="none" stroke-width="1" display="none" /><path d="M 513 -245 L 510 -248 L 507 -245" fill="none" stroke="#880000" stroke-width="1"  display="none" /></g><g c_partid="part_pin" c_etype="pinpart"  c_show="show"  c_elec="0" c_spicepin="7" c_origin="520,-235" id="gge29701" locked="0" c_rotation="270"><text x="524" y="-248.7" font-family="Verdana" font-size="7pt" fill="#000000" text-anchor="start" c_pinname="GND"  transform="rotate(270,524,-248.7)" >GND</text><text x="519" y="-244.5" font-family="Verdana" font-size="7pt" fill="#000000" text-anchor="end" c_pinnumber="7"  transform="rotate(270,519,-244.5)" >7</text><circle c_pindot="true" class="pindot" cx="520" cy="-235" r="2" fill="none" stroke="none" /><path d="M 520 -235 v -10" fill="none" stroke="#000000" stroke-width="1"/><circle cx="520" cy="-242" r="3" stroke="#000000" fill="none" stroke-width="1" display="none" /><path d="M 523 -245 L 520 -248 L 517 -245" fill="none" stroke="#000000" stroke-width="1"  display="none" /></g><g c_partid="part_pin" c_etype="pinpart"  c_show="show"  c_elec="0" c_spicepin="8" c_origin="520,-315" id="gge29722" locked="0" c_rotation="90"><text x="524" y="-301.3" font-family="Verdana" font-size="7pt" fill="#0000FF" text-anchor="end" c_pinname="3Y"  transform="rotate(270,524,-301.3)" >3Y</text><text x="519" y="-305.5" font-family="Verdana" font-size="7pt" fill="#0000FF" text-anchor="start" c_pinnumber="8"  transform="rotate(270,519,-305.5)" >8</text><circle c_pindot="true" class="pindot" cx="520" cy="-315" r="2" fill="none" stroke="none" /><path d="M 520 -315 v 10" fill="none" stroke="#880000" stroke-width="1"/><circle cx="520" cy="-308" r="3" stroke="#880000" fill="none" stroke-width="1" display="none" /><path d="M 517 -305 L 520 -302 L 523 -305" fill="none" stroke="#880000" stroke-width="1"  display="none" /></g><g c_partid="part_pin" c_etype="pinpart"  c_show="show"  c_elec="0" c_spicepin="9" c_origin="510,-315" id="gge29743" locked="0" c_rotation="90"><text x="514" y="-301.3" font-family="Verdana" font-size="7pt" fill="#0000FF" text-anchor="end" c_pinname="3A"  transform="rotate(270,514,-301.3)" >3A</text><text x="509" y="-305.5" font-family="Verdana" font-size="7pt" fill="#0000FF" text-anchor="start" c_pinnumber="9"  transform="rotate(270,509,-305.5)" >9</text><circle c_pindot="true" class="pindot" cx="510" cy="-315" r="2" fill="none" stroke="none" /><path d="M 510 -315 v 10" fill="none" stroke="#880000" stroke-width="1"/><circle cx="510" cy="-308" r="3" stroke="#880000" fill="none" stroke-width="1" display="none" /><path d="M 507 -305 L 510 -302 L 513 -305" fill="none" stroke="#880000" stroke-width="1"  display="none" /></g><g c_partid="part_pin" c_etype="pinpart"  c_show="show"  c_elec="0" c_spicepin="10" c_origin="500,-315" id="gge29764" locked="0" c_rotation="90"><text x="504" y="-301.3" font-family="Verdana" font-size="7pt" fill="#0000FF" text-anchor="end" c_pinname="3B"  transform="rotate(270,504,-301.3)" >3B</text><text x="499" y="-305.5" font-family="Verdana" font-size="7pt" fill="#0000FF" text-anchor="start" c_pinnumber="10"  transform="rotate(270,499,-305.5)" >10</text><circle c_pindot="true" class="pindot" cx="500" cy="-315" r="2" fill="none" stroke="none" /><path d="M 500 -315 v 10" fill="none" stroke="#880000" stroke-width="1"/><circle cx="500" cy="-308" r="3" stroke="#880000" fill="none" stroke-width="1" display="none" /><path d="M 497 -305 L 500 -302 L 503 -305" fill="none" stroke="#880000" stroke-width="1"  display="none" /></g><g c_partid="part_pin" c_etype="pinpart"  c_show="show"  c_elec="0" c_spicepin="11" c_origin="490,-315" id="gge29785" locked="0" c_rotation="90"><text x="494" y="-301.3" font-family="Verdana" font-size="7pt" fill="#0000FF" text-anchor="end" c_pinname="4Y"  transform="rotate(270,494,-301.3)" >4Y</text><text x="489" y="-305.5" font-family="Verdana" font-size="7pt" fill="#0000FF" text-anchor="start" c_pinnumber="11"  transform="rotate(270,489,-305.5)" >11</text><circle c_pindot="true" class="pindot" cx="490" cy="-315" r="2" fill="none" stroke="none" /><path d="M 490 -315 v 10" fill="none" stroke="#880000" stroke-width="1"/><circle cx="490" cy="-308" r="3" stroke="#880000" fill="none" stroke-width="1" display="none" /><path d="M 487 -305 L 490 -302 L 493 -305" fill="none" stroke="#880000" stroke-width="1"  display="none" /></g><g c_partid="part_pin" c_etype="pinpart"  c_show="show"  c_elec="0" c_spicepin="12" c_origin="480,-315" id="gge29806" locked="0" c_rotation="90"><text x="484" y="-301.3" font-family="Verdana" font-size="7pt" fill="#0000FF" text-anchor="end" c_pinname="4A"  transform="rotate(270,484,-301.3)" >4A</text><text x="479" y="-305.5" font-family="Verdana" font-size="7pt" fill="#0000FF" text-anchor="start" c_pinnumber="12"  transform="rotate(270,479,-305.5)" >12</text><circle c_pindot="true" class="pindot" cx="480" cy="-315" r="2" fill="none" stroke="none" /><path d="M 480 -315 v 10" fill="none" stroke="#880000" stroke-width="1"/><circle cx="480" cy="-308" r="3" stroke="#880000" fill="none" stroke-width="1" display="none" /><path d="M 477 -305 L 480 -302 L 483 -305" fill="none" stroke="#880000" stroke-width="1"  display="none" /></g><g c_partid="part_pin" c_etype="pinpart"  c_show="show"  c_elec="0" c_spicepin="13" c_origin="470,-315" id="gge29827" locked="0" c_rotation="90"><text x="474" y="-301.3" font-family="Verdana" font-size="7pt" fill="#0000FF" text-anchor="end" c_pinname="4B"  transform="rotate(270,474,-301.3)" >4B</text><text x="469" y="-305.5" font-family="Verdana" font-size="7pt" fill="#0000FF" text-anchor="start" c_pinnumber="13"  transform="rotate(270,469,-305.5)" >13</text><circle c_pindot="true" class="pindot" cx="470" cy="-315" r="2" fill="none" stroke="none" /><path d="M 470 -315 v 10" fill="none" stroke="#880000" stroke-width="1"/><circle cx="470" cy="-308" r="3" stroke="#880000" fill="none" stroke-width="1" display="none" /><path d="M 467 -305 L 470 -302 L 473 -305" fill="none" stroke="#880000" stroke-width="1"  display="none" /></g><g c_partid="part_pin" c_etype="pinpart"  c_show="show"  c_elec="0" c_spicepin="14" c_origin="460,-315" id="gge29848" locked="0" c_rotation="90"><text x="464" y="-301.3" font-family="Verdana" font-size="7pt" fill="#FF0000" text-anchor="end" c_pinname="VCC"  transform="rotate(270,464,-301.3)" >VCC</text><text x="459" y="-305.5" font-family="Verdana" font-size="7pt" fill="#FF0000" text-anchor="start" c_pinnumber="14"  transform="rotate(270,459,-305.5)" >14</text><circle c_pindot="true" class="pindot" cx="460" cy="-315" r="2" fill="none" stroke="none" /><path d="M 460 -315 v 10" fill="none" stroke="#FF0000" stroke-width="1"/><circle cx="460" cy="-308" r="3" stroke="#FF0000" fill="none" stroke-width="1" display="none" /><path d="M 457 -305 L 460 -302 L 463 -305" fill="none" stroke="#FF0000" stroke-width="1"  display="none" /></g></g><g c_origin="340,-275" c_para="package`DIP-14_L19.2-W6.6-P2.54-LS10.9-BL`spicePre`X`BOM_Supplier`LCSC`BOM_Manufacturer`TI`BOM_Manufacturer Part`SN74HC08N`BOM_Supplier Part`C2887`BOM_JLCPCB Part Class`Extended Part`spiceSymbolName`SN74HC08N`" c_partid="part_lib_gge51d8bac497ea9e78" id="gge51d8bac497ea9e78" locked="0" c_shapetype="group" c_etype="pinpart" puuid="b33782c06f59456891d65206827fb3a9" uuid="22a8b1527c3ce71007c0d5fbd0615fca" convert_to_pcb="yes" datastrid="cd08eaa6614b45378e29d1e814aec3a2" pdatastrid="0e067291a97c4509a73aee126208a2b2" utime="1673151007" add_into_bom="yes" c_rotation="90"><g c_partid="part_annotation" id="gge29884"   c_shapetype="group"><text c_note="note_name" x="382.9" y="-266.984375" fill="#000080" font-family="Arial" font-size="7pt" font-weight="" font-style="" dominant-baseline="" text-anchor="start"  >74HC32</text></g><g c_partid="part_annotation" id="gge33193" display="none"  c_shapetype="group"><text c_note="note_pre" x="384.01" y="-272.13" fill="#000080" font-family="Arial" font-size="7pt" font-weight="" font-style="" dominant-baseline="" text-anchor="start"  >U15</text></g><ellipse cx="303" cy="-250" rx="1.5" ry="1.5" id="gge29896" locked="0" stroke="#880000" stroke-width="1" fill="#880000"   /><rect id="gge29899" locked="0" c_etype="" x="298" y="-305" rx="2" ry="2" width="84" height="60" stroke="#880000" stroke-width="1" fill="none"   /><ellipse cx="303" cy="-250" rx="1.5" ry="1.5" id="gge29902" locked="0" stroke="#880000" stroke-width="1" fill="#880000"   /><g c_partid="part_pin" c_etype="pinpart"  c_show="show"  c_elec="0" c_spicepin="1" c_origin="310,-235" id="gge29905" locked="0" c_rotation="270"><text x="314" y="-248.7" font-family="Verdana" font-size="7pt" fill="#0000FF" text-anchor="start" c_pinname="1A"  transform="rotate(270,314,-248.7)" >1A</text><text x="309" y="-244.5" font-family="Verdana" font-size="7pt" fill="#0000FF" text-anchor="end" c_pinnumber="1"  transform="rotate(270,309,-244.5)" >1</text><circle c_pindot="true" class="pindot" cx="310" cy="-235" r="2" fill="none" stroke="none" /><path d="M 310 -235 v -10" fill="none" stroke="#880000" stroke-width="1"/><circle cx="310" cy="-242" r="3" stroke="#880000" fill="none" stroke-width="1" display="none" /><path d="M 313 -245 L 310 -248 L 307 -245" fill="none" stroke="#880000" stroke-width="1"  display="none" /></g><g c_partid="part_pin" c_etype="pinpart"  c_show="show"  c_elec="0" c_spicepin="2" c_origin="320,-235" id="gge29926" locked="0" c_rotation="270"><text x="324" y="-248.7" font-family="Verdana" font-size="7pt" fill="#0000FF" text-anchor="start" c_pinname="1B"  transform="rotate(270,324,-248.7)" >1B</text><text x="319" y="-244.5" font-family="Verdana" font-size="7pt" fill="#0000FF" text-anchor="end" c_pinnumber="2"  transform="rotate(270,319,-244.5)" >2</text><circle c_pindot="true" class="pindot" cx="320" cy="-235" r="2" fill="none" stroke="none" /><path d="M 320 -235 v -10" fill="none" stroke="#880000" stroke-width="1"/><circle cx="320" cy="-242" r="3" stroke="#880000" fill="none" stroke-width="1" display="none" /><path d="M 323 -245 L 320 -248 L 317 -245" fill="none" stroke="#880000" stroke-width="1"  display="none" /></g><g c_partid="part_pin" c_etype="pinpart"  c_show="show"  c_elec="0" c_spicepin="3" c_origin="330,-235" id="gge29947" locked="0" c_rotation="270"><text x="334" y="-248.7" font-family="Verdana" font-size="7pt" fill="#0000FF" text-anchor="start" c_pinname="1Y"  transform="rotate(270,334,-248.7)" >1Y</text><text x="329" y="-244.5" font-family="Verdana" font-size="7pt" fill="#0000FF" text-anchor="end" c_pinnumber="3"  transform="rotate(270,329,-244.5)" >3</text><circle c_pindot="true" class="pindot" cx="330" cy="-235" r="2" fill="none" stroke="none" /><path d="M 330 -235 v -10" fill="none" stroke="#880000" stroke-width="1"/><circle cx="330" cy="-242" r="3" stroke="#880000" fill="none" stroke-width="1" display="none" /><path d="M 333 -245 L 330 -248 L 327 -245" fill="none" stroke="#880000" stroke-width="1"  display="none" /></g><g c_partid="part_pin" c_etype="pinpart"  c_show="show"  c_elec="0" c_spicepin="4" c_origin="340,-235" id="gge29968" locked="0" c_rotation="270"><text x="344" y="-248.7" font-family="Verdana" font-size="7pt" fill="#0000FF" text-anchor="start" c_pinname="2A"  transform="rotate(270,344,-248.7)" >2A</text><text x="339" y="-244.5" font-family="Verdana" font-size="7pt" fill="#0000FF" text-anchor="end" c_pinnumber="4"  transform="rotate(270,339,-244.5)" >4</text><circle c_pindot="true" class="pindot" cx="340" cy="-235" r="2" fill="none" stroke="none" /><path d="M 340 -235 v -10" fill="none" stroke="#880000" stroke-width="1"/><circle cx="340" cy="-242" r="3" stroke="#880000" fill="none" stroke-width="1" display="none" /><path d="M 343 -245 L 340 -248 L 337 -245" fill="none" stroke="#880000" stroke-width="1"  display="none" /></g><g c_partid="part_pin" c_etype="pinpart"  c_show="show"  c_elec="0" c_spicepin="5" c_origin="350,-235" id="gge29989" locked="0" c_rotation="270"><text x="354" y="-248.7" font-family="Verdana" font-size="7pt" fill="#0000FF" text-anchor="start" c_pinname="2B"  transform="rotate(270,354,-248.7)" >2B</text><text x="349" y="-244.5" font-family="Verdana" font-size="7pt" fill="#0000FF" text-anchor="end" c_pinnumber="5"  transform="rotate(270,349,-244.5)" >5</text><circle c_pindot="true" class="pindot" cx="350" cy="-235" r="2" fill="none" stroke="none" /><path d="M 350 -235 v -10" fill="none" stroke="#880000" stroke-width="1"/><circle cx="350" cy="-242" r="3" stroke="#880000" fill="none" stroke-width="1" display="none" /><path d="M 353 -245 L 350 -248 L 347 -245" fill="none" stroke="#880000" stroke-width="1"  display="none" /></g><g c_partid="part_pin" c_etype="pinpart"  c_show="show"  c_elec="0" c_spicepin="6" c_origin="360,-235" id="gge30010" locked="0" c_rotation="270"><text x="364" y="-248.7" font-family="Verdana" font-size="7pt" fill="#0000FF" text-anchor="start" c_pinname="2Y"  transform="rotate(270,364,-248.7)" >2Y</text><text x="359" y="-244.5" font-family="Verdana" font-size="7pt" fill="#0000FF" text-anchor="end" c_pinnumber="6"  transform="rotate(270,359,-244.5)" >6</text><circle c_pindot="true" class="pindot" cx="360" cy="-235" r="2" fill="none" stroke="none" /><path d="M 360 -235 v -10" fill="none" stroke="#880000" stroke-width="1"/><circle cx="360" cy="-242" r="3" stroke="#880000" fill="none" stroke-width="1" display="none" /><path d="M 363 -245 L 360 -248 L 357 -245" fill="none" stroke="#880000" stroke-width="1"  display="none" /></g><g c_partid="part_pin" c_etype="pinpart"  c_show="show"  c_elec="0" c_spicepin="7" c_origin="370,-235" id="gge30031" locked="0" c_rotation="270"><text x="374" y="-248.7" font-family="Verdana" font-size="7pt" fill="#000000" text-anchor="start" c_pinname="GND"  transform="rotate(270,374,-248.7)" >GND</text><text x="369" y="-244.5" font-family="Verdana" font-size="7pt" fill="#000000" text-anchor="end" c_pinnumber="7"  transform="rotate(270,369,-244.5)" >7</text><circle c_pindot="true" class="pindot" cx="370" cy="-235" r="2" fill="none" stroke="none" /><path d="M 370 -235 v -10" fill="none" stroke="#000000" stroke-width="1"/><circle cx="370" cy="-242" r="3" stroke="#000000" fill="none" stroke-width="1" display="none" /><path d="M 373 -245 L 370 -248 L 367 -245" fill="none" stroke="#000000" stroke-width="1"  display="none" /></g><g c_partid="part_pin" c_etype="pinpart"  c_show="show"  c_elec="0" c_spicepin="8" c_origin="370,-315" id="gge30052" locked="0" c_rotation="90"><text x="374" y="-301.3" font-family="Verdana" font-size="7pt" fill="#0000FF" text-anchor="end" c_pinname="3Y"  transform="rotate(270,374,-301.3)" >3Y</text><text x="369" y="-305.5" font-family="Verdana" font-size="7pt" fill="#0000FF" text-anchor="start" c_pinnumber="8"  transform="rotate(270,369,-305.5)" >8</text><circle c_pindot="true" class="pindot" cx="370" cy="-315" r="2" fill="none" stroke="none" /><path d="M 370 -315 v 10" fill="none" stroke="#880000" stroke-width="1"/><circle cx="370" cy="-308" r="3" stroke="#880000" fill="none" stroke-width="1" display="none" /><path d="M 367 -305 L 370 -302 L 373 -305" fill="none" stroke="#880000" stroke-width="1"  display="none" /></g><g c_partid="part_pin" c_etype="pinpart"  c_show="show"  c_elec="0" c_spicepin="9" c_origin="360,-315" id="gge30073" locked="0" c_rotation="90"><text x="364" y="-301.3" font-family="Verdana" font-size="7pt" fill="#0000FF" text-anchor="end" c_pinname="3A"  transform="rotate(270,364,-301.3)" >3A</text><text x="359" y="-305.5" font-family="Verdana" font-size="7pt" fill="#0000FF" text-anchor="start" c_pinnumber="9"  transform="rotate(270,359,-305.5)" >9</text><circle c_pindot="true" class="pindot" cx="360" cy="-315" r="2" fill="none" stroke="none" /><path d="M 360 -315 v 10" fill="none" stroke="#880000" stroke-width="1"/><circle cx="360" cy="-308" r="3" stroke="#880000" fill="none" stroke-width="1" display="none" /><path d="M 357 -305 L 360 -302 L 363 -305" fill="none" stroke="#880000" stroke-width="1"  display="none" /></g><g c_partid="part_pin" c_etype="pinpart"  c_show="show"  c_elec="0" c_spicepin="10" c_origin="350,-315" id="gge30094" locked="0" c_rotation="90"><text x="354" y="-301.3" font-family="Verdana" font-size="7pt" fill="#0000FF" text-anchor="end" c_pinname="3B"  transform="rotate(270,354,-301.3)" >3B</text><text x="349" y="-305.5" font-family="Verdana" font-size="7pt" fill="#0000FF" text-anchor="start" c_pinnumber="10"  transform="rotate(270,349,-305.5)" >10</text><circle c_pindot="true" class="pindot" cx="350" cy="-315" r="2" fill="none" stroke="none" /><path d="M 350 -315 v 10" fill="none" stroke="#880000" stroke-width="1"/><circle cx="350" cy="-308" r="3" stroke="#880000" fill="none" stroke-width="1" display="none" /><path d="M 347 -305 L 350 -302 L 353 -305" fill="none" stroke="#880000" stroke-width="1"  display="none" /></g><g c_partid="part_pin" c_etype="pinpart"  c_show="show"  c_elec="0" c_spicepin="11" c_origin="340,-315" id="gge30115" locked="0" c_rotation="90"><text x="344" y="-301.3" font-family="Verdana" font-size="7pt" fill="#0000FF" text-anchor="end" c_pinname="4Y"  transform="rotate(270,344,-301.3)" >4Y</text><text x="339" y="-305.5" font-family="Verdana" font-size="7pt" fill="#0000FF" text-anchor="start" c_pinnumber="11"  transform="rotate(270,339,-305.5)" >11</text><circle c_pindot="true" class="pindot" cx="340" cy="-315" r="2" fill="none" stroke="none" /><path d="M 340 -315 v 10" fill="none" stroke="#880000" stroke-width="1"/><circle cx="340" cy="-308" r="3" stroke="#880000" fill="none" stroke-width="1" display="none" /><path d="M 337 -305 L 340 -302 L 343 -305" fill="none" stroke="#880000" stroke-width="1"  display="none" /></g><g c_partid="part_pin" c_etype="pinpart"  c_show="show"  c_elec="0" c_spicepin="12" c_origin="330,-315" id="gge30136" locked="0" c_rotation="90"><text x="334" y="-301.3" font-family="Verdana" font-size="7pt" fill="#0000FF" text-anchor="end" c_pinname="4A"  transform="rotate(270,334,-301.3)" >4A</text><text x="329" y="-305.5" font-family="Verdana" font-size="7pt" fill="#0000FF" text-anchor="start" c_pinnumber="12"  transform="rotate(270,329,-305.5)" >12</text><circle c_pindot="true" class="pindot" cx="330" cy="-315" r="2" fill="none" stroke="none" /><path d="M 330 -315 v 10" fill="none" stroke="#880000" stroke-width="1"/><circle cx="330" cy="-308" r="3" stroke="#880000" fill="none" stroke-width="1" display="none" /><path d="M 327 -305 L 330 -302 L 333 -305" fill="none" stroke="#880000" stroke-width="1"  display="none" /></g><g c_partid="part_pin" c_etype="pinpart"  c_show="show"  c_elec="0" c_spicepin="13" c_origin="320,-315" id="gge30157" locked="0" c_rotation="90"><text x="324" y="-301.3" font-family="Verdana" font-size="7pt" fill="#0000FF" text-anchor="end" c_pinname="4B"  transform="rotate(270,324,-301.3)" >4B</text><text x="319" y="-305.5" font-family="Verdana" font-size="7pt" fill="#0000FF" text-anchor="start" c_pinnumber="13"  transform="rotate(270,319,-305.5)" >13</text><circle c_pindot="true" class="pindot" cx="320" cy="-315" r="2" fill="none" stroke="none" /><path d="M 320 -315 v 10" fill="none" stroke="#880000" stroke-width="1"/><circle cx="320" cy="-308" r="3" stroke="#880000" fill="none" stroke-width="1" display="none" /><path d="M 317 -305 L 320 -302 L 323 -305" fill="none" stroke="#880000" stroke-width="1"  display="none" /></g><g c_partid="part_pin" c_etype="pinpart"  c_show="show"  c_elec="0" c_spicepin="14" c_origin="310,-315" id="gge30178" locked="0" c_rotation="90"><text x="314" y="-301.3" font-family="Verdana" font-size="7pt" fill="#FF0000" text-anchor="end" c_pinname="VCC"  transform="rotate(270,314,-301.3)" >VCC</text><text x="309" y="-305.5" font-family="Verdana" font-size="7pt" fill="#FF0000" text-anchor="start" c_pinnumber="14"  transform="rotate(270,309,-305.5)" >14</text><circle c_pindot="true" class="pindot" cx="310" cy="-315" r="2" fill="none" stroke="none" /><path d="M 310 -315 v 10" fill="none" stroke="#FF0000" stroke-width="1"/><circle cx="310" cy="-308" r="3" stroke="#FF0000" fill="none" stroke-width="1" display="none" /><path d="M 307 -305 L 310 -302 L 313 -305" fill="none" stroke="#FF0000" stroke-width="1"  display="none" /></g></g><polyline c_etype="wire" c_shapetype="line" points="225 -297 290 -297 290 -230 310 -230 310 -235" stroke="#008800" id="gge30544" locked="0" stroke-width="1"   fill="none" stroke-linecap="round" /><polyline c_etype="wire" c_shapetype="line" points="225 -265 280 -265 280 -220 320 -220 320 -235" stroke="#008800" id="gge30547" locked="0" stroke-width="1"   fill="none" stroke-linecap="round" /><polyline c_etype="wire" c_shapetype="line" points="330 -235 330 -220 470 -220 470 -235" stroke="#008800" id="gge30569" locked="0" stroke-width="1"   fill="none" stroke-linecap="round" /><polyline c_etype="wire" c_shapetype="line" points="460 -235 460 -230 435 -230 435 -330 290 -330 290 -297" stroke="#008800" id="gge30572" locked="0" stroke-width="1"   fill="none" stroke-linecap="round" /><polyline c_etype="wire" c_shapetype="line" points="480 -235 480 -220 575 -220 575 -280 590 -280" stroke="#008800" id="gge30576" locked="0" stroke-width="1"   fill="none" stroke-linecap="round" /><g c_partid="part_junction" c_etype="pinpart" c_origin="370,-170" id="gge29329" locked="0" c_shapetype="group"><circle c_pindot="true" class="pindot" cx="370" cy="-170" r="2" fill="none" stroke="none"/><circle cx="370" cy="-170" r="2.5" fill="#CC0000" stroke-width="1"/></g><g c_partid="part_junction" c_etype="pinpart" c_origin="310,-380" id="gge29338" locked="0" c_shapetype="group"><circle c_pindot="true" class="pindot" cx="310" cy="-380" r="2" fill="none" stroke="none"/><circle cx="310" cy="-380" r="2.5" fill="#CC0000" stroke-width="1"/></g><g c_partid="part_junction" c_etype="pinpart" c_origin="460,-380" id="gge29347" locked="0" c_shapetype="group"><circle c_pindot="true" class="pindot" cx="460" cy="-380" r="2" fill="none" stroke="none"/><circle cx="460" cy="-380" r="2.5" fill="#CC0000" stroke-width="1"/></g><g c_partid="part_junction" c_etype="pinpart" c_origin="520,-170" id="gge29356" locked="0" c_shapetype="group"><circle c_pindot="true" class="pindot" cx="520" cy="-170" r="2" fill="none" stroke="none"/><circle cx="520" cy="-170" r="2.5" fill="#CC0000" stroke-width="1"/></g><g c_partid="part_junction" c_etype="pinpart" c_origin="290,-297" id="gge30573" locked="0" c_shapetype="group"><circle c_pindot="true" class="pindot" cx="290" cy="-297" r="2" fill="none" stroke="none"/><circle cx="290" cy="-297" r="2.5" fill="#CC0000" stroke-width="1"/></g></g></svg>