<svg xmlns="http://www.w3.org/2000/svg" xmlns:xlink="http://www.w3.org/1999/xlink" width="429.8" height="245.4" viewBox="5.300000000000001 -281.4 429.8 245.4"><title>Half Adder</title><style type="text/css">
path, polyline, polygon {stroke-linejoin:round;}
rect, circle, ellipse, polyline, line, polygon, path {shape-rendering:crispEdges;}
</style>
<rect x="5.300000000000001" y="-281.4" width="429.8" height="245.4" fill="#FFFFFF" stroke="none"/><g xmlns="http://www.w3.org/2000/svg" id="g1" c_spiceCmd="null" c_para="Prefix Start`1`" importFlag="0" c_portOfADImportHack="" c_transformList=""><g c_partid="part_netLabel_+5V" c_etype="pinpart" c_origin="60,-265" id="gge934" locked="0" c_shapetype="group" c_rotation="90"><circle c_pindot="true" class="pindot" cx="60" cy="-265" r="2" fill="none" stroke="none" /><g c_partid="part_annotation" id="flag_gge7" c_shapetype="group" ><text x="27.90625" y="-260.9609375" font-family="Times New Roman" font-size="9pt" fill="#000000" text-anchor="start" c_note="note_netflag" >+5V</text></g><polyline points="50 -265 60 -265" stroke="#000000" id="gge946" locked="0" stroke-width="1"   fill="transparent" stroke-linecap="round" /><polyline points="50 -260 50 -270" stroke="#000000" id="gge949" locked="0" stroke-width="1"   fill="transparent" stroke-linecap="round" /></g><g c_partid="part_netLabel_gnD" c_etype="pinpart" c_origin="60,-250" id="gge952" locked="0" c_shapetype="group" c_rotation="270"><circle c_pindot="true" class="pindot" cx="60" cy="-250" r="2" fill="none" stroke="none" /><g c_partid="part_annotation" id="flag_gge10" c_shapetype="group" ><text x="17.5234375" y="-245.96875" font-family="Times New Roman" font-size="9pt" fill="#000000" text-anchor="start" c_note="note_netflag" >GND</text></g><polyline points="50 -250 60 -250" stroke="#000000" id="gge964" locked="0" stroke-width="1"   fill="transparent" stroke-linecap="round" /><polyline points="50 -259 50 -241" stroke="#000000" id="gge967" locked="0" stroke-width="1"   fill="transparent" stroke-linecap="round" /><polyline points="48 -256 48 -244" stroke="#000000" id="gge970" locked="0" stroke-width="1"   fill="transparent" stroke-linecap="round" /><polyline points="46 -253 46 -247" stroke="#000000" id="gge973" locked="0" stroke-width="1"   fill="transparent" stroke-linecap="round" /><polyline points="44 -251 44 -249" stroke="#000000" id="gge976" locked="0" stroke-width="1"   fill="transparent" stroke-linecap="round" /></g><polyline c_etype="wire" c_shapetype="line" points="60 -265 370 -265" stroke="#FF0000" id="gge979" locked="0" stroke-width="1"   fill="none" stroke-linecap="round" /><polyline c_etype="wire" c_shapetype="line" points="60 -250 370 -250" stroke="#0000FF" id="gge982" locked="0" stroke-width="1"   fill="none" stroke-linecap="round" /><polyline c_etype="wire" c_shapetype="line" points="60 -55 370 -55" stroke="#0000FF" id="gge985" locked="0" stroke-width="1"   fill="none" stroke-linecap="round" /><polyline c_etype="wire" c_shapetype="line" points="60 -70 370 -70" stroke="#FF0000" id="gge988" locked="0" stroke-width="1"   fill="none" stroke-linecap="round" /><g c_partid="part_netLabel_gnD" c_etype="pinpart" c_origin="60,-55" id="gge991" locked="0" c_shapetype="group" c_rotation="270"><circle c_pindot="true" class="pindot" cx="60" cy="-55" r="2" fill="none" stroke="none" /><g c_partid="part_annotation" id="flag_gge13" c_shapetype="group" ><text x="17.5234375" y="-50.96875" font-family="Times New Roman" font-size="9pt" fill="#000000" text-anchor="start" c_note="note_netflag" >GND</text></g><polyline points="50 -55 60 -55" stroke="#000000" id="gge1003" locked="0" stroke-width="1"   fill="transparent" stroke-linecap="round" /><polyline points="50 -64 50 -46" stroke="#000000" id="gge1006" locked="0" stroke-width="1"   fill="transparent" stroke-linecap="round" /><polyline points="48 -61 48 -49" stroke="#000000" id="gge1009" locked="0" stroke-width="1"   fill="transparent" stroke-linecap="round" /><polyline points="46 -58 46 -52" stroke="#000000" id="gge1012" locked="0" stroke-width="1"   fill="transparent" stroke-linecap="round" /><polyline points="44 -56 44 -54" stroke="#000000" id="gge1015" locked="0" stroke-width="1"   fill="transparent" stroke-linecap="round" /></g><g c_partid="part_netLabel_+5V" c_etype="pinpart" c_origin="60,-70" id="gge1018" locked="0" c_shapetype="group" c_rotation="90"><circle c_pindot="true" class="pindot" cx="60" cy="-70" r="2" fill="none" stroke="none" /><g c_partid="part_annotation" id="flag_gge16" c_shapetype="group" ><text x="27.90625" y="-65.9609375" font-family="Times New Roman" font-size="9pt" fill="#000000" text-anchor="start" c_note="note_netflag" >+5V</text></g><polyline points="50 -70 60 -70" stroke="#000000" id="gge1030" locked="0" stroke-width="1"   fill="transparent" stroke-linecap="round" /><polyline points="50 -65 50 -75" stroke="#000000" id="gge1033" locked="0" stroke-width="1"   fill="transparent" stroke-linecap="round" /></g><g c_partid="part_netLabel_netPort" c_etype="pinpart" c_origin="45,-180" id="gge6076" locked="0" c_shapetype="group" c_rotation="0"><circle c_pindot="true" class="pindot" cx="45" cy="-180" r="2" fill="none" stroke="none" /><g c_partid="part_annotation" id="flag_gge19" c_shapetype="group" ><text x="23" y="-176.541" font-family="Times New Roman" font-size="8pt" fill="#0000FF" text-anchor="end" c_note="note_netflag" >A</text></g><polyline points="45 -180 40 -175 25 -175 25 -185 40 -185 45 -180" stroke="#0000FF" id="gge6088" locked="0" stroke-width="1"   fill="transparent" stroke-linecap="round" /></g><g c_partid="part_netLabel_netPort" c_etype="pinpart" c_origin="45,-155" id="gge6091" locked="0" c_shapetype="group" c_rotation="0"><circle c_pindot="true" class="pindot" cx="45" cy="-155" r="2" fill="none" stroke="none" /><g c_partid="part_annotation" id="flag_gge22" c_shapetype="group" ><text x="23" y="-151.541" font-family="Times New Roman" font-size="8pt" fill="#0000FF" text-anchor="end" c_note="note_netflag" >B</text></g><polyline points="45 -155 40 -150 25 -150 25 -160 40 -160 45 -155" stroke="#0000FF" id="gge6103" locked="0" stroke-width="1"   fill="transparent" stroke-linecap="round" /></g><g c_partid="part_netLabel_netPort" c_etype="pinpart" c_origin="380,-180" id="gge6121" locked="0" c_shapetype="group" c_rotation="180"><circle c_pindot="true" class="pindot" cx="380" cy="-180" r="2" fill="none" stroke="none" /><g c_partid="part_annotation" id="flag_gge25" c_shapetype="group" ><text x="402.01" y="-177.41" font-family="Times New Roman" font-size="8pt" fill="#0000FF" text-anchor="start" c_note="note_netflag" >SUM</text></g><polyline points="380 -180 385 -185 400 -185 400 -175 385 -175 380 -180" stroke="#0000FF" id="gge6133" locked="0" stroke-width="1"   fill="transparent" stroke-linecap="round" /></g><g c_partid="part_netLabel_netPort" c_etype="pinpart" c_origin="380,-155" id="gge6136" locked="0" c_shapetype="group" c_rotation="180"><circle c_pindot="true" class="pindot" cx="380" cy="-155" r="2" fill="none" stroke="none" /><g c_partid="part_annotation" id="flag_gge28" c_shapetype="group" ><text x="402.01" y="-152.41" font-family="Times New Roman" font-size="8pt" fill="#0000FF" text-anchor="start" c_note="note_netflag" >C</text></g><polyline points="380 -155 385 -160 400 -160 400 -150 385 -150 380 -155" stroke="#0000FF" id="gge6148" locked="0" stroke-width="1"   fill="transparent" stroke-linecap="round" /></g><g c_origin="130,-165" c_para="package`SOIC-14_L8.7-W3.9-P1.27-LS6.0-BL`BOM_Supplier`LCSC`BOM_Supplier Part`C2871997`BOM_Manufacturer`TI(&#x5fb7;&#x5dde;&#x4eea;&#x5668;)`BOM_Manufacturer Part`SN74HC86DT`link`https://atta.szlcsc.comnull`Contributor`LCSC`spicePre`U`spiceSymbolName`SN74HC86DT`" c_partid="part_lib_gge865b7f3c966f54b1" id="gge865b7f3c966f54b1" locked="0" c_shapetype="group" c_etype="pinpart" puuid="0f2364c02f094100b1b3205c9d829099" uuid="a86b5ed2e0e5427a92ff99c261e0c4c8" convert_to_pcb="yes" datastrid="f5dc4492eba145ed83ce6b64eefb433d" pdatastrid="8644d637d644489ab2230ccb6ba45845" utime="1647872778" add_into_bom="yes" c_rotation="90"><g c_partid="part_annotation" id="gge6175"   c_shapetype="group"><text c_note="note_name" x="174.96875" y="-161.984375" fill="#000080" font-family="Arial" font-size="7pt" font-weight="" font-style="" dominant-baseline="" text-anchor="start"  >74xx08</text></g><g c_partid="part_annotation" id="gge6181" display="none"  c_shapetype="group"><text c_note="note_pre" x="172.01" y="-161.9296875" fill="#000080" font-family="Arial" font-size="7pt" font-weight="" font-style="" dominant-baseline="" text-anchor="start"  >U4</text></g><rect id="gge6187" locked="0" c_etype="" x="90" y="-190" rx="2" ry="2" width="80" height="50" stroke="#880000" stroke-width="1" fill="none"   /><ellipse cx="95" cy="-145" rx="1.5" ry="1.5" id="gge6190" locked="0" stroke="#880000" stroke-width="1" fill="#880000"   /><g c_partid="part_pin" c_etype="pinpart"  c_show="show"  c_elec="0" c_spicepin="1" c_origin="100,-130" id="gge6193" locked="0" c_rotation="270"><text x="104" y="-143.7" font-family="Verdana" font-size="7pt" fill="#0000FF" text-anchor="start" c_pinname="1A"  transform="rotate(270,104,-143.7)" >1A</text><text x="99" y="-139.5" font-family="Verdana" font-size="7pt" fill="#0000FF" text-anchor="end" c_pinnumber="1"  transform="rotate(270,99,-139.5)" >1</text><circle c_pindot="true" class="pindot" cx="100" cy="-130" r="2" fill="none" stroke="none" /><path d="M 100 -130 v -10" fill="none" stroke="#880000" stroke-width="1"/><circle cx="100" cy="-137" r="3" stroke="#880000" fill="none" stroke-width="1" display="none" /><path d="M 103 -140 L 100 -143 L 97 -140" fill="none" stroke="#880000" stroke-width="1"  display="none" /></g><g c_partid="part_pin" c_etype="pinpart"  c_show="show"  c_elec="0" c_spicepin="2" c_origin="110,-130" id="gge6214" locked="0" c_rotation="270"><text x="114" y="-143.7" font-family="Verdana" font-size="7pt" fill="#0000FF" text-anchor="start" c_pinname="1B"  transform="rotate(270,114,-143.7)" >1B</text><text x="109" y="-139.5" font-family="Verdana" font-size="7pt" fill="#0000FF" text-anchor="end" c_pinnumber="2"  transform="rotate(270,109,-139.5)" >2</text><circle c_pindot="true" class="pindot" cx="110" cy="-130" r="2" fill="none" stroke="none" /><path d="M 110 -130 v -10" fill="none" stroke="#880000" stroke-width="1"/><circle cx="110" cy="-137" r="3" stroke="#880000" fill="none" stroke-width="1" display="none" /><path d="M 113 -140 L 110 -143 L 107 -140" fill="none" stroke="#880000" stroke-width="1"  display="none" /></g><g c_partid="part_pin" c_etype="pinpart"  c_show="show"  c_elec="0" c_spicepin="3" c_origin="120,-130" id="gge6235" locked="0" c_rotation="270"><text x="124" y="-143.7" font-family="Verdana" font-size="7pt" fill="#0000FF" text-anchor="start" c_pinname="1Y"  transform="rotate(270,124,-143.7)" >1Y</text><text x="119" y="-139.5" font-family="Verdana" font-size="7pt" fill="#0000FF" text-anchor="end" c_pinnumber="3"  transform="rotate(270,119,-139.5)" >3</text><circle c_pindot="true" class="pindot" cx="120" cy="-130" r="2" fill="none" stroke="none" /><path d="M 120 -130 v -10" fill="none" stroke="#880000" stroke-width="1"/><circle cx="120" cy="-137" r="3" stroke="#880000" fill="none" stroke-width="1" display="none" /><path d="M 123 -140 L 120 -143 L 117 -140" fill="none" stroke="#880000" stroke-width="1"  display="none" /></g><g c_partid="part_pin" c_etype="pinpart"  c_show="show"  c_elec="0" c_spicepin="4" c_origin="130,-130" id="gge6256" locked="0" c_rotation="270"><text x="134" y="-143.7" font-family="Verdana" font-size="7pt" fill="#0000FF" text-anchor="start" c_pinname="2A"  transform="rotate(270,134,-143.7)" >2A</text><text x="129" y="-139.5" font-family="Verdana" font-size="7pt" fill="#0000FF" text-anchor="end" c_pinnumber="4"  transform="rotate(270,129,-139.5)" >4</text><circle c_pindot="true" class="pindot" cx="130" cy="-130" r="2" fill="none" stroke="none" /><path d="M 130 -130 v -10" fill="none" stroke="#880000" stroke-width="1"/><circle cx="130" cy="-137" r="3" stroke="#880000" fill="none" stroke-width="1" display="none" /><path d="M 133 -140 L 130 -143 L 127 -140" fill="none" stroke="#880000" stroke-width="1"  display="none" /></g><g c_partid="part_pin" c_etype="pinpart"  c_show="show"  c_elec="0" c_spicepin="5" c_origin="140,-130" id="gge6277" locked="0" c_rotation="270"><text x="144" y="-143.7" font-family="Verdana" font-size="7pt" fill="#0000FF" text-anchor="start" c_pinname="2B"  transform="rotate(270,144,-143.7)" >2B</text><text x="139" y="-139.5" font-family="Verdana" font-size="7pt" fill="#0000FF" text-anchor="end" c_pinnumber="5"  transform="rotate(270,139,-139.5)" >5</text><circle c_pindot="true" class="pindot" cx="140" cy="-130" r="2" fill="none" stroke="none" /><path d="M 140 -130 v -10" fill="none" stroke="#880000" stroke-width="1"/><circle cx="140" cy="-137" r="3" stroke="#880000" fill="none" stroke-width="1" display="none" /><path d="M 143 -140 L 140 -143 L 137 -140" fill="none" stroke="#880000" stroke-width="1"  display="none" /></g><g c_partid="part_pin" c_etype="pinpart"  c_show="show"  c_elec="0" c_spicepin="6" c_origin="150,-130" id="gge6298" locked="0" c_rotation="270"><text x="154" y="-143.7" font-family="Verdana" font-size="7pt" fill="#0000FF" text-anchor="start" c_pinname="2Y"  transform="rotate(270,154,-143.7)" >2Y</text><text x="149" y="-139.5" font-family="Verdana" font-size="7pt" fill="#0000FF" text-anchor="end" c_pinnumber="6"  transform="rotate(270,149,-139.5)" >6</text><circle c_pindot="true" class="pindot" cx="150" cy="-130" r="2" fill="none" stroke="none" /><path d="M 150 -130 v -10" fill="none" stroke="#880000" stroke-width="1"/><circle cx="150" cy="-137" r="3" stroke="#880000" fill="none" stroke-width="1" display="none" /><path d="M 153 -140 L 150 -143 L 147 -140" fill="none" stroke="#880000" stroke-width="1"  display="none" /></g><g c_partid="part_pin" c_etype="pinpart"  c_show="show"  c_elec="0" c_spicepin="7" c_origin="160,-130" id="gge6319" locked="0" c_rotation="270"><text x="164" y="-143.7" font-family="Verdana" font-size="7pt" fill="#000000" text-anchor="start" c_pinname="GND"  transform="rotate(270,164,-143.7)" >GND</text><text x="159" y="-139.5" font-family="Verdana" font-size="7pt" fill="#000000" text-anchor="end" c_pinnumber="7"  transform="rotate(270,159,-139.5)" >7</text><circle c_pindot="true" class="pindot" cx="160" cy="-130" r="2" fill="none" stroke="none" /><path d="M 160 -130 v -10" fill="none" stroke="#000000" stroke-width="1"/><circle cx="160" cy="-137" r="3" stroke="#000000" fill="none" stroke-width="1" display="none" /><path d="M 163 -140 L 160 -143 L 157 -140" fill="none" stroke="#000000" stroke-width="1"  display="none" /></g><g c_partid="part_pin" c_etype="pinpart"  c_show="show"  c_elec="0" c_spicepin="8" c_origin="160,-200" id="gge6340" locked="0" c_rotation="90"><text x="164" y="-186.3" font-family="Verdana" font-size="7pt" fill="#0000FF" text-anchor="end" c_pinname="3Y"  transform="rotate(270,164,-186.3)" >3Y</text><text x="159" y="-190.5" font-family="Verdana" font-size="7pt" fill="#0000FF" text-anchor="start" c_pinnumber="8"  transform="rotate(270,159,-190.5)" >8</text><circle c_pindot="true" class="pindot" cx="160" cy="-200" r="2" fill="none" stroke="none" /><path d="M 160 -200 v 10" fill="none" stroke="#880000" stroke-width="1"/><circle cx="160" cy="-193" r="3" stroke="#880000" fill="none" stroke-width="1" display="none" /><path d="M 157 -190 L 160 -187 L 163 -190" fill="none" stroke="#880000" stroke-width="1"  display="none" /></g><g c_partid="part_pin" c_etype="pinpart"  c_show="show"  c_elec="0" c_spicepin="9" c_origin="150,-200" id="gge6361" locked="0" c_rotation="90"><text x="154" y="-186.3" font-family="Verdana" font-size="7pt" fill="#0000FF" text-anchor="end" c_pinname="3A"  transform="rotate(270,154,-186.3)" >3A</text><text x="149" y="-190.5" font-family="Verdana" font-size="7pt" fill="#0000FF" text-anchor="start" c_pinnumber="9"  transform="rotate(270,149,-190.5)" >9</text><circle c_pindot="true" class="pindot" cx="150" cy="-200" r="2" fill="none" stroke="none" /><path d="M 150 -200 v 10" fill="none" stroke="#880000" stroke-width="1"/><circle cx="150" cy="-193" r="3" stroke="#880000" fill="none" stroke-width="1" display="none" /><path d="M 147 -190 L 150 -187 L 153 -190" fill="none" stroke="#880000" stroke-width="1"  display="none" /></g><g c_partid="part_pin" c_etype="pinpart"  c_show="show"  c_elec="0" c_spicepin="10" c_origin="140,-200" id="gge6382" locked="0" c_rotation="90"><text x="144" y="-186.3" font-family="Verdana" font-size="7pt" fill="#0000FF" text-anchor="end" c_pinname="3B"  transform="rotate(270,144,-186.3)" >3B</text><text x="139" y="-190.5" font-family="Verdana" font-size="7pt" fill="#0000FF" text-anchor="start" c_pinnumber="10"  transform="rotate(270,139,-190.5)" >10</text><circle c_pindot="true" class="pindot" cx="140" cy="-200" r="2" fill="none" stroke="none" /><path d="M 140 -200 v 10" fill="none" stroke="#880000" stroke-width="1"/><circle cx="140" cy="-193" r="3" stroke="#880000" fill="none" stroke-width="1" display="none" /><path d="M 137 -190 L 140 -187 L 143 -190" fill="none" stroke="#880000" stroke-width="1"  display="none" /></g><g c_partid="part_pin" c_etype="pinpart"  c_show="show"  c_elec="0" c_spicepin="11" c_origin="130,-200" id="gge6403" locked="0" c_rotation="90"><text x="134" y="-186.3" font-family="Verdana" font-size="7pt" fill="#0000FF" text-anchor="end" c_pinname="4Y"  transform="rotate(270,134,-186.3)" >4Y</text><text x="129" y="-190.5" font-family="Verdana" font-size="7pt" fill="#0000FF" text-anchor="start" c_pinnumber="11"  transform="rotate(270,129,-190.5)" >11</text><circle c_pindot="true" class="pindot" cx="130" cy="-200" r="2" fill="none" stroke="none" /><path d="M 130 -200 v 10" fill="none" stroke="#880000" stroke-width="1"/><circle cx="130" cy="-193" r="3" stroke="#880000" fill="none" stroke-width="1" display="none" /><path d="M 127 -190 L 130 -187 L 133 -190" fill="none" stroke="#880000" stroke-width="1"  display="none" /></g><g c_partid="part_pin" c_etype="pinpart"  c_show="show"  c_elec="0" c_spicepin="12" c_origin="120,-200" id="gge6424" locked="0" c_rotation="90"><text x="124" y="-186.3" font-family="Verdana" font-size="7pt" fill="#0000FF" text-anchor="end" c_pinname="4A"  transform="rotate(270,124,-186.3)" >4A</text><text x="119" y="-190.5" font-family="Verdana" font-size="7pt" fill="#0000FF" text-anchor="start" c_pinnumber="12"  transform="rotate(270,119,-190.5)" >12</text><circle c_pindot="true" class="pindot" cx="120" cy="-200" r="2" fill="none" stroke="none" /><path d="M 120 -200 v 10" fill="none" stroke="#880000" stroke-width="1"/><circle cx="120" cy="-193" r="3" stroke="#880000" fill="none" stroke-width="1" display="none" /><path d="M 117 -190 L 120 -187 L 123 -190" fill="none" stroke="#880000" stroke-width="1"  display="none" /></g><g c_partid="part_pin" c_etype="pinpart"  c_show="show"  c_elec="0" c_spicepin="13" c_origin="110,-200" id="gge6445" locked="0" c_rotation="90"><text x="114" y="-186.3" font-family="Verdana" font-size="7pt" fill="#0000FF" text-anchor="end" c_pinname="4B"  transform="rotate(270,114,-186.3)" >4B</text><text x="109" y="-190.5" font-family="Verdana" font-size="7pt" fill="#0000FF" text-anchor="start" c_pinnumber="13"  transform="rotate(270,109,-190.5)" >13</text><circle c_pindot="true" class="pindot" cx="110" cy="-200" r="2" fill="none" stroke="none" /><path d="M 110 -200 v 10" fill="none" stroke="#880000" stroke-width="1"/><circle cx="110" cy="-193" r="3" stroke="#880000" fill="none" stroke-width="1" display="none" /><path d="M 107 -190 L 110 -187 L 113 -190" fill="none" stroke="#880000" stroke-width="1"  display="none" /></g><g c_partid="part_pin" c_etype="pinpart"  c_show="show"  c_elec="0" c_spicepin="14" c_origin="100,-200" id="gge6466" locked="0" c_rotation="90"><text x="104" y="-186.3" font-family="Verdana" font-size="7pt" fill="#FF0000" text-anchor="end" c_pinname="VCC"  transform="rotate(270,104,-186.3)" >VCC</text><text x="99" y="-190.5" font-family="Verdana" font-size="7pt" fill="#FF0000" text-anchor="start" c_pinnumber="14"  transform="rotate(270,99,-190.5)" >14</text><circle c_pindot="true" class="pindot" cx="100" cy="-200" r="2" fill="none" stroke="none" /><path d="M 100 -200 v 10" fill="none" stroke="#FF0000" stroke-width="1"/><circle cx="100" cy="-193" r="3" stroke="#FF0000" fill="none" stroke-width="1" display="none" /><path d="M 97 -190 L 100 -187 L 103 -190" fill="none" stroke="#FF0000" stroke-width="1"  display="none" /></g></g><g c_origin="265,-165" c_para="package`SOIC-14_L8.7-W3.9-P1.27-LS6.0-BL`BOM_Supplier`LCSC`BOM_Supplier Part`C2872007`BOM_Manufacturer`TI(&#x5fb7;&#x5dde;&#x4eea;&#x5668;)`BOM_Manufacturer Part`SN74HC08DT`link`https://atta.szlcsc.comnull`Contributor`LCSC`spicePre`U`spiceSymbolName`SN74HC08DT`" c_partid="part_lib_ggeafacf807ea9931bf" id="ggeafacf807ea9931bf" locked="0" c_shapetype="group" c_etype="pinpart" puuid="0f2364c02f094100b1b3205c9d829099" uuid="e43014a7edc24263a9b424f8889cae71" convert_to_pcb="yes" datastrid="dd3ae7b352c94526bb197c6e6dcad528" pdatastrid="8644d637d644489ab2230ccb6ba45845" utime="1672996811" add_into_bom="yes" c_rotation="90"><g c_partid="part_annotation" id="gge6839"   c_shapetype="group"><text c_note="note_name" x="309.96875" y="-161.984375" fill="#000080" font-family="Arial" font-size="7pt" font-weight="" font-style="" dominant-baseline="" text-anchor="start"  >74xx86</text></g><g c_partid="part_annotation" id="gge6845" display="none"  c_shapetype="group"><text c_note="note_pre" x="307.01" y="-161.98" fill="#000080" font-family="Arial" font-size="7pt" font-weight="" font-style="" dominant-baseline="" text-anchor="start"  >U5</text></g><rect id="gge6851" locked="0" c_etype="" x="225" y="-190" rx="2" ry="2" width="80" height="50" stroke="#880000" stroke-width="1" fill="none"   /><ellipse cx="230" cy="-145" rx="1.5" ry="1.5" id="gge6854" locked="0" stroke="#880000" stroke-width="1" fill="#880000"   /><g c_partid="part_pin" c_etype="pinpart"  c_show="show"  c_elec="0" c_spicepin="1" c_origin="235,-130" id="gge6857" locked="0" c_rotation="270"><text x="239" y="-143.7" font-family="Verdana" font-size="7pt" fill="#0000FF" text-anchor="start" c_pinname="1A"  transform="rotate(270,239,-143.7)" >1A</text><text x="234" y="-139.5" font-family="Verdana" font-size="7pt" fill="#0000FF" text-anchor="end" c_pinnumber="1"  transform="rotate(270,234,-139.5)" >1</text><circle c_pindot="true" class="pindot" cx="235" cy="-130" r="2" fill="none" stroke="none" /><path d="M 235 -130 v -10" fill="none" stroke="#880000" stroke-width="1"/><circle cx="235" cy="-137" r="3" stroke="#880000" fill="none" stroke-width="1" display="none" /><path d="M 238 -140 L 235 -143 L 232 -140" fill="none" stroke="#880000" stroke-width="1"  display="none" /></g><g c_partid="part_pin" c_etype="pinpart"  c_show="show"  c_elec="0" c_spicepin="2" c_origin="245,-130" id="gge6878" locked="0" c_rotation="270"><text x="249" y="-143.7" font-family="Verdana" font-size="7pt" fill="#0000FF" text-anchor="start" c_pinname="1B"  transform="rotate(270,249,-143.7)" >1B</text><text x="244" y="-139.5" font-family="Verdana" font-size="7pt" fill="#0000FF" text-anchor="end" c_pinnumber="2"  transform="rotate(270,244,-139.5)" >2</text><circle c_pindot="true" class="pindot" cx="245" cy="-130" r="2" fill="none" stroke="none" /><path d="M 245 -130 v -10" fill="none" stroke="#880000" stroke-width="1"/><circle cx="245" cy="-137" r="3" stroke="#880000" fill="none" stroke-width="1" display="none" /><path d="M 248 -140 L 245 -143 L 242 -140" fill="none" stroke="#880000" stroke-width="1"  display="none" /></g><g c_partid="part_pin" c_etype="pinpart"  c_show="show"  c_elec="0" c_spicepin="3" c_origin="255,-130" id="gge6899" locked="0" c_rotation="270"><text x="259" y="-143.7" font-family="Verdana" font-size="7pt" fill="#0000FF" text-anchor="start" c_pinname="1Y"  transform="rotate(270,259,-143.7)" >1Y</text><text x="254" y="-139.5" font-family="Verdana" font-size="7pt" fill="#0000FF" text-anchor="end" c_pinnumber="3"  transform="rotate(270,254,-139.5)" >3</text><circle c_pindot="true" class="pindot" cx="255" cy="-130" r="2" fill="none" stroke="none" /><path d="M 255 -130 v -10" fill="none" stroke="#880000" stroke-width="1"/><circle cx="255" cy="-137" r="3" stroke="#880000" fill="none" stroke-width="1" display="none" /><path d="M 258 -140 L 255 -143 L 252 -140" fill="none" stroke="#880000" stroke-width="1"  display="none" /></g><g c_partid="part_pin" c_etype="pinpart"  c_show="show"  c_elec="0" c_spicepin="4" c_origin="265,-130" id="gge6920" locked="0" c_rotation="270"><text x="269" y="-143.7" font-family="Verdana" font-size="7pt" fill="#0000FF" text-anchor="start" c_pinname="2A"  transform="rotate(270,269,-143.7)" >2A</text><text x="264" y="-139.5" font-family="Verdana" font-size="7pt" fill="#0000FF" text-anchor="end" c_pinnumber="4"  transform="rotate(270,264,-139.5)" >4</text><circle c_pindot="true" class="pindot" cx="265" cy="-130" r="2" fill="none" stroke="none" /><path d="M 265 -130 v -10" fill="none" stroke="#880000" stroke-width="1"/><circle cx="265" cy="-137" r="3" stroke="#880000" fill="none" stroke-width="1" display="none" /><path d="M 268 -140 L 265 -143 L 262 -140" fill="none" stroke="#880000" stroke-width="1"  display="none" /></g><g c_partid="part_pin" c_etype="pinpart"  c_show="show"  c_elec="0" c_spicepin="5" c_origin="275,-130" id="gge6941" locked="0" c_rotation="270"><text x="279" y="-143.7" font-family="Verdana" font-size="7pt" fill="#0000FF" text-anchor="start" c_pinname="2B"  transform="rotate(270,279,-143.7)" >2B</text><text x="274" y="-139.5" font-family="Verdana" font-size="7pt" fill="#0000FF" text-anchor="end" c_pinnumber="5"  transform="rotate(270,274,-139.5)" >5</text><circle c_pindot="true" class="pindot" cx="275" cy="-130" r="2" fill="none" stroke="none" /><path d="M 275 -130 v -10" fill="none" stroke="#880000" stroke-width="1"/><circle cx="275" cy="-137" r="3" stroke="#880000" fill="none" stroke-width="1" display="none" /><path d="M 278 -140 L 275 -143 L 272 -140" fill="none" stroke="#880000" stroke-width="1"  display="none" /></g><g c_partid="part_pin" c_etype="pinpart"  c_show="show"  c_elec="0" c_spicepin="6" c_origin="285,-130" id="gge6962" locked="0" c_rotation="270"><text x="289" y="-143.7" font-family="Verdana" font-size="7pt" fill="#0000FF" text-anchor="start" c_pinname="2Y"  transform="rotate(270,289,-143.7)" >2Y</text><text x="284" y="-139.5" font-family="Verdana" font-size="7pt" fill="#0000FF" text-anchor="end" c_pinnumber="6"  transform="rotate(270,284,-139.5)" >6</text><circle c_pindot="true" class="pindot" cx="285" cy="-130" r="2" fill="none" stroke="none" /><path d="M 285 -130 v -10" fill="none" stroke="#880000" stroke-width="1"/><circle cx="285" cy="-137" r="3" stroke="#880000" fill="none" stroke-width="1" display="none" /><path d="M 288 -140 L 285 -143 L 282 -140" fill="none" stroke="#880000" stroke-width="1"  display="none" /></g><g c_partid="part_pin" c_etype="pinpart"  c_show="show"  c_elec="0" c_spicepin="7" c_origin="295,-130" id="gge6983" locked="0" c_rotation="270"><text x="299" y="-143.7" font-family="Verdana" font-size="7pt" fill="#000000" text-anchor="start" c_pinname="GND"  transform="rotate(270,299,-143.7)" >GND</text><text x="294" y="-139.5" font-family="Verdana" font-size="7pt" fill="#000000" text-anchor="end" c_pinnumber="7"  transform="rotate(270,294,-139.5)" >7</text><circle c_pindot="true" class="pindot" cx="295" cy="-130" r="2" fill="none" stroke="none" /><path d="M 295 -130 v -10" fill="none" stroke="#000000" stroke-width="1"/><circle cx="295" cy="-137" r="3" stroke="#000000" fill="none" stroke-width="1" display="none" /><path d="M 298 -140 L 295 -143 L 292 -140" fill="none" stroke="#000000" stroke-width="1"  display="none" /></g><g c_partid="part_pin" c_etype="pinpart"  c_show="show"  c_elec="0" c_spicepin="8" c_origin="295,-200" id="gge7004" locked="0" c_rotation="90"><text x="299" y="-186.3" font-family="Verdana" font-size="7pt" fill="#0000FF" text-anchor="end" c_pinname="3Y"  transform="rotate(270,299,-186.3)" >3Y</text><text x="294" y="-190.5" font-family="Verdana" font-size="7pt" fill="#0000FF" text-anchor="start" c_pinnumber="8"  transform="rotate(270,294,-190.5)" >8</text><circle c_pindot="true" class="pindot" cx="295" cy="-200" r="2" fill="none" stroke="none" /><path d="M 295 -200 v 10" fill="none" stroke="#880000" stroke-width="1"/><circle cx="295" cy="-193" r="3" stroke="#880000" fill="none" stroke-width="1" display="none" /><path d="M 292 -190 L 295 -187 L 298 -190" fill="none" stroke="#880000" stroke-width="1"  display="none" /></g><g c_partid="part_pin" c_etype="pinpart"  c_show="show"  c_elec="0" c_spicepin="9" c_origin="285,-200" id="gge7025" locked="0" c_rotation="90"><text x="289" y="-186.3" font-family="Verdana" font-size="7pt" fill="#0000FF" text-anchor="end" c_pinname="3A"  transform="rotate(270,289,-186.3)" >3A</text><text x="284" y="-190.5" font-family="Verdana" font-size="7pt" fill="#0000FF" text-anchor="start" c_pinnumber="9"  transform="rotate(270,284,-190.5)" >9</text><circle c_pindot="true" class="pindot" cx="285" cy="-200" r="2" fill="none" stroke="none" /><path d="M 285 -200 v 10" fill="none" stroke="#880000" stroke-width="1"/><circle cx="285" cy="-193" r="3" stroke="#880000" fill="none" stroke-width="1" display="none" /><path d="M 282 -190 L 285 -187 L 288 -190" fill="none" stroke="#880000" stroke-width="1"  display="none" /></g><g c_partid="part_pin" c_etype="pinpart"  c_show="show"  c_elec="0" c_spicepin="10" c_origin="275,-200" id="gge7046" locked="0" c_rotation="90"><text x="279" y="-186.3" font-family="Verdana" font-size="7pt" fill="#0000FF" text-anchor="end" c_pinname="3B"  transform="rotate(270,279,-186.3)" >3B</text><text x="274" y="-190.5" font-family="Verdana" font-size="7pt" fill="#0000FF" text-anchor="start" c_pinnumber="10"  transform="rotate(270,274,-190.5)" >10</text><circle c_pindot="true" class="pindot" cx="275" cy="-200" r="2" fill="none" stroke="none" /><path d="M 275 -200 v 10" fill="none" stroke="#880000" stroke-width="1"/><circle cx="275" cy="-193" r="3" stroke="#880000" fill="none" stroke-width="1" display="none" /><path d="M 272 -190 L 275 -187 L 278 -190" fill="none" stroke="#880000" stroke-width="1"  display="none" /></g><g c_partid="part_pin" c_etype="pinpart"  c_show="show"  c_elec="0" c_spicepin="11" c_origin="265,-200" id="gge7067" locked="0" c_rotation="90"><text x="269" y="-186.3" font-family="Verdana" font-size="7pt" fill="#0000FF" text-anchor="end" c_pinname="4Y"  transform="rotate(270,269,-186.3)" >4Y</text><text x="264" y="-190.5" font-family="Verdana" font-size="7pt" fill="#0000FF" text-anchor="start" c_pinnumber="11"  transform="rotate(270,264,-190.5)" >11</text><circle c_pindot="true" class="pindot" cx="265" cy="-200" r="2" fill="none" stroke="none" /><path d="M 265 -200 v 10" fill="none" stroke="#880000" stroke-width="1"/><circle cx="265" cy="-193" r="3" stroke="#880000" fill="none" stroke-width="1" display="none" /><path d="M 262 -190 L 265 -187 L 268 -190" fill="none" stroke="#880000" stroke-width="1"  display="none" /></g><g c_partid="part_pin" c_etype="pinpart"  c_show="show"  c_elec="0" c_spicepin="12" c_origin="255,-200" id="gge7088" locked="0" c_rotation="90"><text x="259" y="-186.3" font-family="Verdana" font-size="7pt" fill="#0000FF" text-anchor="end" c_pinname="4A"  transform="rotate(270,259,-186.3)" >4A</text><text x="254" y="-190.5" font-family="Verdana" font-size="7pt" fill="#0000FF" text-anchor="start" c_pinnumber="12"  transform="rotate(270,254,-190.5)" >12</text><circle c_pindot="true" class="pindot" cx="255" cy="-200" r="2" fill="none" stroke="none" /><path d="M 255 -200 v 10" fill="none" stroke="#880000" stroke-width="1"/><circle cx="255" cy="-193" r="3" stroke="#880000" fill="none" stroke-width="1" display="none" /><path d="M 252 -190 L 255 -187 L 258 -190" fill="none" stroke="#880000" stroke-width="1"  display="none" /></g><g c_partid="part_pin" c_etype="pinpart"  c_show="show"  c_elec="0" c_spicepin="13" c_origin="245,-200" id="gge7109" locked="0" c_rotation="90"><text x="249" y="-186.3" font-family="Verdana" font-size="7pt" fill="#0000FF" text-anchor="end" c_pinname="4B"  transform="rotate(270,249,-186.3)" >4B</text><text x="244" y="-190.5" font-family="Verdana" font-size="7pt" fill="#0000FF" text-anchor="start" c_pinnumber="13"  transform="rotate(270,244,-190.5)" >13</text><circle c_pindot="true" class="pindot" cx="245" cy="-200" r="2" fill="none" stroke="none" /><path d="M 245 -200 v 10" fill="none" stroke="#880000" stroke-width="1"/><circle cx="245" cy="-193" r="3" stroke="#880000" fill="none" stroke-width="1" display="none" /><path d="M 242 -190 L 245 -187 L 248 -190" fill="none" stroke="#880000" stroke-width="1"  display="none" /></g><g c_partid="part_pin" c_etype="pinpart"  c_show="show"  c_elec="0" c_spicepin="14" c_origin="235,-200" id="gge7130" locked="0" c_rotation="90"><text x="239" y="-186.3" font-family="Verdana" font-size="7pt" fill="#FF0000" text-anchor="end" c_pinname="VCC"  transform="rotate(270,239,-186.3)" >VCC</text><text x="234" y="-190.5" font-family="Verdana" font-size="7pt" fill="#FF0000" text-anchor="start" c_pinnumber="14"  transform="rotate(270,234,-190.5)" >14</text><circle c_pindot="true" class="pindot" cx="235" cy="-200" r="2" fill="none" stroke="none" /><path d="M 235 -200 v 10" fill="none" stroke="#FF0000" stroke-width="1"/><circle cx="235" cy="-193" r="3" stroke="#FF0000" fill="none" stroke-width="1" display="none" /><path d="M 232 -190 L 235 -187 L 238 -190" fill="none" stroke="#FF0000" stroke-width="1"  display="none" /></g></g><polyline c_etype="wire" c_shapetype="line" points="100 -200 100 -265" stroke="#FF0000" id="gge7173" locked="0" stroke-width="1"   fill="none" stroke-linecap="round" /><polyline c_etype="wire" c_shapetype="line" points="160 -130 160 -55" stroke="#0000FF" id="gge7177" locked="0" stroke-width="1"   fill="none" stroke-linecap="round" /><polyline c_etype="wire" c_shapetype="line" points="235 -200 235 -265" stroke="#FF0000" id="gge7181" locked="0" stroke-width="1"   fill="none" stroke-linecap="round" /><polyline c_etype="wire" c_shapetype="line" points="295 -130 295 -55" stroke="#0000FF" id="gge7185" locked="0" stroke-width="1"   fill="none" stroke-linecap="round" /><polyline c_etype="wire" c_shapetype="line" points="100 -130 100 -125 80 -125 80 -180 45 -180" stroke="#008800" id="gge7192" locked="0" stroke-width="1"   fill="none" stroke-linecap="round" /><polyline c_etype="wire" c_shapetype="line" points="45 -155 70 -155 70 -115 110 -115 110 -130" stroke="#008800" id="gge7195" locked="0" stroke-width="1"   fill="none" stroke-linecap="round" /><polyline c_etype="wire" c_shapetype="line" points="235 -130 235 -125 100 -125" stroke="#008800" id="gge7198" locked="0" stroke-width="1"   fill="none" stroke-linecap="round" /><polyline c_etype="wire" c_shapetype="line" points="245 -130 245 -115 110 -115" stroke="#008800" id="gge7202" locked="0" stroke-width="1"   fill="none" stroke-linecap="round" /><polyline c_etype="wire" c_shapetype="line" points="255 -130 255 -115 350 -115 350 -180 380 -180" stroke="#008800" id="gge7218" locked="0" stroke-width="1"   fill="none" stroke-linecap="round" /><polyline c_etype="wire" c_shapetype="line" points="380 -155 360 -155 360 -105 120 -105 120 -130" stroke="#008800" id="gge7221" locked="0" stroke-width="1"   fill="none" stroke-linecap="round" /><g c_partid="part_junction" c_etype="pinpart" c_origin="100,-265" id="gge7174" locked="0" c_shapetype="group"><circle c_pindot="true" class="pindot" cx="100" cy="-265" r="2" fill="none" stroke="none"/><circle cx="100" cy="-265" r="2.5" fill="#CC0000" stroke-width="1"/></g><g c_partid="part_junction" c_etype="pinpart" c_origin="160,-55" id="gge7178" locked="0" c_shapetype="group"><circle c_pindot="true" class="pindot" cx="160" cy="-55" r="2" fill="none" stroke="none"/><circle cx="160" cy="-55" r="2.5" fill="#CC0000" stroke-width="1"/></g><g c_partid="part_junction" c_etype="pinpart" c_origin="235,-265" id="gge7182" locked="0" c_shapetype="group"><circle c_pindot="true" class="pindot" cx="235" cy="-265" r="2" fill="none" stroke="none"/><circle cx="235" cy="-265" r="2.5" fill="#CC0000" stroke-width="1"/></g><g c_partid="part_junction" c_etype="pinpart" c_origin="295,-55" id="gge7186" locked="0" c_shapetype="group"><circle c_pindot="true" class="pindot" cx="295" cy="-55" r="2" fill="none" stroke="none"/><circle cx="295" cy="-55" r="2.5" fill="#CC0000" stroke-width="1"/></g><g c_partid="part_junction" c_etype="pinpart" c_origin="100,-125" id="gge7199" locked="0" c_shapetype="group"><circle c_pindot="true" class="pindot" cx="100" cy="-125" r="2" fill="none" stroke="none"/><circle cx="100" cy="-125" r="2.5" fill="#CC0000" stroke-width="1"/></g><g c_partid="part_junction" c_etype="pinpart" c_origin="110,-115" id="gge7203" locked="0" c_shapetype="group"><circle c_pindot="true" class="pindot" cx="110" cy="-115" r="2" fill="none" stroke="none"/><circle cx="110" cy="-115" r="2.5" fill="#CC0000" stroke-width="1"/></g></g></svg>